<?xml version="1.0" standalone="no"?><svg xmlns="http://www.w3.org/2000/svg" viewBox="0 0 1440 320"><path fill="#9d0208" fill-opacity="1" d="M0,288L26.7,288C53.3,288,107,288,160,277.3C213.3,267,267,245,320,208C373.3,171,427,117,480,122.7C533.3,128,587,192,640,192C693.3,192,747,128,800,117.3C853.3,107,907,149,960,181.3C1013.3,213,1067,235,1120,245.3C1173.3,256,1227,256,1280,250.7C1333.3,245,1387,235,1413,229.3L1440,224L1440,0L1413.3,0C1386.7,0,1333,0,1280,0C1226.7,0,1173,0,1120,0C1066.7,0,1013,0,960,0C906.7,0,853,0,800,0C746.7,0,693,0,640,0C586.7,0,533,0,480,0C426.7,0,373,0,320,0C266.7,0,213,0,160,0C106.7,0,53,0,27,0L0,0Z"></path></svg>