<svg id="visual" viewBox="0 0 900 600" width="900" height="600" xmlns="http://www.w3.org/2000/svg" xmlns:xlink="http://www.w3.org/1999/xlink" version="1.1"><rect x="0" y="0" width="900" height="600" fill="#f4f4f4"></rect><path d="M0 375L21.5 365.5C43 356 86 337 128.8 316.8C171.7 296.7 214.3 275.3 257.2 264.7C300 254 343 254 385.8 268C428.7 282 471.3 310 514.2 323.7C557 337.3 600 336.7 642.8 321.7C685.7 306.7 728.3 277.3 771.2 279.7C814 282 857 316 878.5 333L900 350L900 0L878.5 0C857 0 814 0 771.2 0C728.3 0 685.7 0 642.8 0C600 0 557 0 514.2 0C471.3 0 428.7 0 385.8 0C343 0 300 0 257.2 0C214.3 0 171.7 0 128.8 0C86 0 43 0 21.5 0L0 0Z" fill="#9d0208" stroke-linecap="round" stroke-linejoin="miter"></path></svg>